<?xml version="1.0" standalone="no"?>
<!DOCTYPE svg PUBLIC "-//W3C//DTD SVG 20010904//EN"
 "http://www.w3.org/TR/2001/REC-SVG-20010904/DTD/svg10.dtd">
<svg version="1.0" xmlns="http://www.w3.org/2000/svg"
 width="256.000000pt" height="256.000000pt" viewBox="0 0 256.000000 256.000000"
 preserveAspectRatio="xMidYMid meet">
<metadata>
Created by potrace 1.11, written by Peter Selinger 2001-2013
</metadata>
<g transform="translate(0.000000,256.000000) scale(0.100000,-0.100000)"
fill="#000000" stroke="none">
<path d="M953 1815 c-141 -32 -212 -150 -218 -365 -10 -289 97 -436 305 -417
66 6 104 23 147 67 66 67 94 157 98 309 3 157 -24 261 -89 338 -50 59 -153 88
-243 68z m107 -150 c66 -60 75 -379 13 -463 -14 -19 -31 -28 -56 -30 -76 -7
-110 75 -111 263 0 132 21 212 62 237 31 19 66 17 92 -7z"/>
<path d="M2249 1816 c-194 -54 -325 -186 -365 -367 -9 -43 -6 -154 6 -200 19
-69 45 -113 94 -156 57 -50 114 -67 205 -61 142 10 237 108 245 256 8 142 -70
241 -193 247 -51 3 -90 -8 -143 -42 -21 -13 -40 -23 -42 -23 -2 0 1 14 7 31
28 72 136 153 241 180 25 6 48 14 50 18 8 12 -35 131 -47 130 -7 0 -33 -6 -58
-13z m-33 -427 c38 -20 51 -59 45 -136 -2 -31 -46 -80 -78 -86 -39 -7 -89 16
-106 50 -35 70 -30 143 12 164 56 29 85 30 127 8z"/>
<path d="M258 1800 c-59 -21 -128 -58 -128 -68 0 -4 12 -35 26 -68 l26 -62 62
32 c83 44 147 43 186 -1 21 -23 27 -39 25 -66 -6 -66 -38 -111 -182 -252
l-143 -139 0 -63 0 -63 33 -1 c143 -2 488 0 494 4 4 3 7 37 5 76 l-4 71 -159
0 -160 0 48 41 c90 77 201 195 224 240 26 51 33 139 16 195 -13 42 -60 95
-109 120 -52 27 -188 30 -260 4z"/>
<path d="M1605 1793 c-60 -13 -138 -29 -172 -35 -70 -12 -71 -15 -65 -116 l4
-53 37 6 c21 3 53 10 72 15 69 20 64 39 64 -275 0 -248 2 -285 15 -286 18 -1
163 -1 170 0 4 1 5 710 1 759 -1 6 -4 11 -8 11 -5 -1 -57 -13 -118 -26z"/>
<path d="M1378 975 c-2 -2 -52 -5 -113 -9 -182 -10 -289 -19 -460 -41 -16 -2
-59 -7 -95 -10 -36 -3 -76 -8 -89 -10 -99 -17 -467 -26 -546 -13 -40 6 -40 6
-10 -7 78 -34 334 -48 575 -31 108 7 126 9 220 20 30 3 78 9 105 11 28 3 70 7
95 10 25 3 72 7 105 10 33 2 98 7 145 11 118 10 717 11 820 1 104 -10 135 -14
180 -22 23 -4 32 -3 25 3 -5 6 -64 19 -130 30 -110 19 -166 27 -280 38 -45 5
-543 13 -547 9z"/>
<path d="M2378 883 c7 -3 16 -2 19 1 4 3 -2 6 -13 5 -11 0 -14 -3 -6 -6z"/>
<path d="M1428 865 c-1 -1 -55 -6 -118 -10 -174 -10 -341 -26 -420 -40 -23 -4
-98 -12 -190 -21 -207 -19 -449 -25 -525 -12 l-40 6 32 -14 c67 -29 206 -46
383 -47 144 -1 365 9 379 17 3 2 41 7 83 11 43 3 90 8 105 10 16 2 64 6 108
10 44 4 93 9 110 11 218 25 887 25 1040 -1 17 -3 54 -10 84 -15 30 -6 56 -8
58 -7 8 8 -214 60 -302 71 -22 2 -58 7 -80 10 -109 15 -181 19 -432 21 -149 2
-273 2 -275 0z"/>
</g>
</svg>
